<svg width="393" height="852" viewBox="0 0 393 852" fill="none" xmlns="http://www.w3.org/2000/svg">
<mask id="mask0_31_2893" style="mask-type:alpha" maskUnits="userSpaceOnUse" x="0" y="0" width="960" height="960">
<rect width="960" height="960" fill="url(#paint0_radial_31_2893)"/>
</mask>
<g mask="url(#mask0_31_2893)">
<g clip-path="url(#clip0_31_2893)">
<mask id="path-3-inside-1_31_2893" fill="white">
<path d="M0 0H64V64H0V0Z"/>
</mask>
<path d="M64 64V65H65V64H64ZM64 0H63V64H64H65V0H64ZM64 64V63H0V64V65H64V64Z" fill="#E9EAEB" mask="url(#path-3-inside-1_31_2893)"/>
<mask id="path-5-inside-2_31_2893" fill="white">
<path d="M64 0H128V64H64V0Z"/>
</mask>
<path d="M128 64V65H129V64H128ZM128 0H127V64H128H129V0H128ZM128 64V63H64V64V65H128V64Z" fill="#E9EAEB" mask="url(#path-5-inside-2_31_2893)"/>
<mask id="path-7-inside-3_31_2893" fill="white">
<path d="M128 0H192V64H128V0Z"/>
</mask>
<path d="M192 64V65H193V64H192ZM192 0H191V64H192H193V0H192ZM192 64V63H128V64V65H192V64Z" fill="#E9EAEB" mask="url(#path-7-inside-3_31_2893)"/>
<mask id="path-9-inside-4_31_2893" fill="white">
<path d="M192 0H256V64H192V0Z"/>
</mask>
<path d="M256 64V65H257V64H256ZM256 0H255V64H256H257V0H256ZM256 64V63H192V64V65H256V64Z" fill="#E9EAEB" mask="url(#path-9-inside-4_31_2893)"/>
<mask id="path-11-inside-5_31_2893" fill="white">
<path d="M256 0H320V64H256V0Z"/>
</mask>
<path d="M320 64V65H321V64H320ZM320 0H319V64H320H321V0H320ZM320 64V63H256V64V65H320V64Z" fill="#E9EAEB" mask="url(#path-11-inside-5_31_2893)"/>
<mask id="path-13-inside-6_31_2893" fill="white">
<path d="M320 0H384V64H320V0Z"/>
</mask>
<path d="M384 64V65H385V64H384ZM384 0H383V64H384H385V0H384ZM384 64V63H320V64V65H384V64Z" fill="#E9EAEB" mask="url(#path-13-inside-6_31_2893)"/>
<mask id="path-15-inside-7_31_2893" fill="white">
<path d="M384 0H448V64H384V0Z"/>
</mask>
<path d="M448 64V65H449V64H448ZM448 0H447V64H448H449V0H448ZM448 64V63H384V64V65H448V64Z" fill="#E9EAEB" mask="url(#path-15-inside-7_31_2893)"/>
<mask id="path-17-inside-8_31_2893" fill="white">
<path d="M0 64H64V128H0V64Z"/>
</mask>
<path d="M64 128V129H65V128H64ZM64 64H63V128H64H65V64H64ZM64 128V127H0V128V129H64V128Z" fill="#E9EAEB" mask="url(#path-17-inside-8_31_2893)"/>
<mask id="path-19-inside-9_31_2893" fill="white">
<path d="M64 64H128V128H64V64Z"/>
</mask>
<path d="M128 128V129H129V128H128ZM128 64H127V128H128H129V64H128ZM128 128V127H64V128V129H128V128Z" fill="#E9EAEB" mask="url(#path-19-inside-9_31_2893)"/>
<mask id="path-21-inside-10_31_2893" fill="white">
<path d="M128 64H192V128H128V64Z"/>
</mask>
<path d="M128 64H192V128H128V64Z" fill="#F5F5F5"/>
<path d="M192 128V129H193V128H192ZM192 64H191V128H192H193V64H192ZM192 128V127H128V128V129H192V128Z" fill="#E9EAEB" mask="url(#path-21-inside-10_31_2893)"/>
<mask id="path-23-inside-11_31_2893" fill="white">
<path d="M192 64H256V128H192V64Z"/>
</mask>
<path d="M256 128V129H257V128H256ZM256 64H255V128H256H257V64H256ZM256 128V127H192V128V129H256V128Z" fill="#E9EAEB" mask="url(#path-23-inside-11_31_2893)"/>
<mask id="path-25-inside-12_31_2893" fill="white">
<path d="M256 64H320V128H256V64Z"/>
</mask>
<path d="M320 128V129H321V128H320ZM320 64H319V128H320H321V64H320ZM320 128V127H256V128V129H320V128Z" fill="#E9EAEB" mask="url(#path-25-inside-12_31_2893)"/>
<mask id="path-27-inside-13_31_2893" fill="white">
<path d="M320 64H384V128H320V64Z"/>
</mask>
<path d="M384 128V129H385V128H384ZM384 64H383V128H384H385V64H384ZM384 128V127H320V128V129H384V128Z" fill="#E9EAEB" mask="url(#path-27-inside-13_31_2893)"/>
<mask id="path-29-inside-14_31_2893" fill="white">
<path d="M384 64H448V128H384V64Z"/>
</mask>
<path d="M448 128V129H449V128H448ZM448 64H447V128H448H449V64H448ZM448 128V127H384V128V129H448V128Z" fill="#E9EAEB" mask="url(#path-29-inside-14_31_2893)"/>
<mask id="path-31-inside-15_31_2893" fill="white">
<path d="M0 128H64V192H0V128Z"/>
</mask>
<path d="M64 192V193H65V192H64ZM64 128H63V192H64H65V128H64ZM64 192V191H0V192V193H64V192Z" fill="#E9EAEB" mask="url(#path-31-inside-15_31_2893)"/>
<mask id="path-33-inside-16_31_2893" fill="white">
<path d="M64 128H128V192H64V128Z"/>
</mask>
<path d="M128 192V193H129V192H128ZM128 128H127V192H128H129V128H128ZM128 192V191H64V192V193H128V192Z" fill="#E9EAEB" mask="url(#path-33-inside-16_31_2893)"/>
<mask id="path-35-inside-17_31_2893" fill="white">
<path d="M128 128H192V192H128V128Z"/>
</mask>
<path d="M192 192V193H193V192H192ZM192 128H191V192H192H193V128H192ZM192 192V191H128V192V193H192V192Z" fill="#E9EAEB" mask="url(#path-35-inside-17_31_2893)"/>
<mask id="path-37-inside-18_31_2893" fill="white">
<path d="M192 128H256V192H192V128Z"/>
</mask>
<path d="M256 192V193H257V192H256ZM256 128H255V192H256H257V128H256ZM256 192V191H192V192V193H256V192Z" fill="#E9EAEB" mask="url(#path-37-inside-18_31_2893)"/>
<mask id="path-39-inside-19_31_2893" fill="white">
<path d="M256 128H320V192H256V128Z"/>
</mask>
<path d="M256 128H320V192H256V128Z" fill="#F5F5F5"/>
<path d="M320 192V193H321V192H320ZM320 128H319V192H320H321V128H320ZM320 192V191H256V192V193H320V192Z" fill="#E9EAEB" mask="url(#path-39-inside-19_31_2893)"/>
<mask id="path-41-inside-20_31_2893" fill="white">
<path d="M320 128H384V192H320V128Z"/>
</mask>
<path d="M384 192V193H385V192H384ZM384 128H383V192H384H385V128H384ZM384 192V191H320V192V193H384V192Z" fill="#E9EAEB" mask="url(#path-41-inside-20_31_2893)"/>
<mask id="path-43-inside-21_31_2893" fill="white">
<path d="M384 128H448V192H384V128Z"/>
</mask>
<path d="M448 192V193H449V192H448ZM448 128H447V192H448H449V128H448ZM448 192V191H384V192V193H448V192Z" fill="#E9EAEB" mask="url(#path-43-inside-21_31_2893)"/>
<mask id="path-45-inside-22_31_2893" fill="white">
<path d="M0 192H64V256H0V192Z"/>
</mask>
<path d="M64 256V257H65V256H64ZM64 192H63V256H64H65V192H64ZM64 256V255H0V256V257H64V256Z" fill="#E9EAEB" mask="url(#path-45-inside-22_31_2893)"/>
<mask id="path-47-inside-23_31_2893" fill="white">
<path d="M64 192H128V256H64V192Z"/>
</mask>
<path d="M128 256V257H129V256H128ZM128 192H127V256H128H129V192H128ZM128 256V255H64V256V257H128V256Z" fill="#E9EAEB" mask="url(#path-47-inside-23_31_2893)"/>
<mask id="path-49-inside-24_31_2893" fill="white">
<path d="M128 192H192V256H128V192Z"/>
</mask>
<path d="M192 256V257H193V256H192ZM192 192H191V256H192H193V192H192ZM192 256V255H128V256V257H192V256Z" fill="#E9EAEB" mask="url(#path-49-inside-24_31_2893)"/>
<mask id="path-51-inside-25_31_2893" fill="white">
<path d="M192 192H256V256H192V192Z"/>
</mask>
<path d="M256 256V257H257V256H256ZM256 192H255V256H256H257V192H256ZM256 256V255H192V256V257H256V256Z" fill="#E9EAEB" mask="url(#path-51-inside-25_31_2893)"/>
<mask id="path-53-inside-26_31_2893" fill="white">
<path d="M256 192H320V256H256V192Z"/>
</mask>
<path d="M320 256V257H321V256H320ZM320 192H319V256H320H321V192H320ZM320 256V255H256V256V257H320V256Z" fill="#E9EAEB" mask="url(#path-53-inside-26_31_2893)"/>
<mask id="path-55-inside-27_31_2893" fill="white">
<path d="M320 192H384V256H320V192Z"/>
</mask>
<path d="M384 256V257H385V256H384ZM384 192H383V256H384H385V192H384ZM384 256V255H320V256V257H384V256Z" fill="#E9EAEB" mask="url(#path-55-inside-27_31_2893)"/>
<mask id="path-57-inside-28_31_2893" fill="white">
<path d="M384 192H448V256H384V192Z"/>
</mask>
<path d="M448 256V257H449V256H448ZM448 192H447V256H448H449V192H448ZM448 256V255H384V256V257H448V256Z" fill="#E9EAEB" mask="url(#path-57-inside-28_31_2893)"/>
<mask id="path-59-inside-29_31_2893" fill="white">
<path d="M0 256H64V320H0V256Z"/>
</mask>
<path d="M0 256H64V320H0V256Z" fill="#F5F5F5"/>
<path d="M64 320V321H65V320H64ZM64 256H63V320H64H65V256H64ZM64 320V319H0V320V321H64V320Z" fill="#E9EAEB" mask="url(#path-59-inside-29_31_2893)"/>
<mask id="path-61-inside-30_31_2893" fill="white">
<path d="M64 256H128V320H64V256Z"/>
</mask>
<path d="M128 320V321H129V320H128ZM128 256H127V320H128H129V256H128ZM128 320V319H64V320V321H128V320Z" fill="#E9EAEB" mask="url(#path-61-inside-30_31_2893)"/>
<mask id="path-63-inside-31_31_2893" fill="white">
<path d="M128 256H192V320H128V256Z"/>
</mask>
<path d="M192 320V321H193V320H192ZM192 256H191V320H192H193V256H192ZM192 320V319H128V320V321H192V320Z" fill="#E9EAEB" mask="url(#path-63-inside-31_31_2893)"/>
<mask id="path-65-inside-32_31_2893" fill="white">
<path d="M192 256H256V320H192V256Z"/>
</mask>
<path d="M256 320V321H257V320H256ZM256 256H255V320H256H257V256H256ZM256 320V319H192V320V321H256V320Z" fill="#E9EAEB" mask="url(#path-65-inside-32_31_2893)"/>
<mask id="path-67-inside-33_31_2893" fill="white">
<path d="M256 256H320V320H256V256Z"/>
</mask>
<path d="M320 320V321H321V320H320ZM320 256H319V320H320H321V256H320ZM320 320V319H256V320V321H320V320Z" fill="#E9EAEB" mask="url(#path-67-inside-33_31_2893)"/>
<mask id="path-69-inside-34_31_2893" fill="white">
<path d="M320 256H384V320H320V256Z"/>
</mask>
<path d="M320 256H384V320H320V256Z" fill="#F5F5F5"/>
<path d="M384 320V321H385V320H384ZM384 256H383V320H384H385V256H384ZM384 320V319H320V320V321H384V320Z" fill="#E9EAEB" mask="url(#path-69-inside-34_31_2893)"/>
<mask id="path-71-inside-35_31_2893" fill="white">
<path d="M384 256H448V320H384V256Z"/>
</mask>
<path d="M448 320V321H449V320H448ZM448 256H447V320H448H449V256H448ZM448 320V319H384V320V321H448V320Z" fill="#E9EAEB" mask="url(#path-71-inside-35_31_2893)"/>
<mask id="path-73-inside-36_31_2893" fill="white">
<path d="M0 320H64V384H0V320Z"/>
</mask>
<path d="M64 384V385H65V384H64ZM64 320H63V384H64H65V320H64ZM64 384V383H0V384V385H64V384Z" fill="#E9EAEB" mask="url(#path-73-inside-36_31_2893)"/>
<mask id="path-75-inside-37_31_2893" fill="white">
<path d="M64 320H128V384H64V320Z"/>
</mask>
<path d="M128 384V385H129V384H128ZM128 320H127V384H128H129V320H128ZM128 384V383H64V384V385H128V384Z" fill="#E9EAEB" mask="url(#path-75-inside-37_31_2893)"/>
<mask id="path-77-inside-38_31_2893" fill="white">
<path d="M128 320H192V384H128V320Z"/>
</mask>
<path d="M192 384V385H193V384H192ZM192 320H191V384H192H193V320H192ZM192 384V383H128V384V385H192V384Z" fill="#E9EAEB" mask="url(#path-77-inside-38_31_2893)"/>
<mask id="path-79-inside-39_31_2893" fill="white">
<path d="M192 320H256V384H192V320Z"/>
</mask>
<path d="M192 320H256V384H192V320Z" fill="#F5F5F5"/>
<path d="M256 384V385H257V384H256ZM256 320H255V384H256H257V320H256ZM256 384V383H192V384V385H256V384Z" fill="#E9EAEB" mask="url(#path-79-inside-39_31_2893)"/>
<mask id="path-81-inside-40_31_2893" fill="white">
<path d="M256 320H320V384H256V320Z"/>
</mask>
<path d="M320 384V385H321V384H320ZM320 320H319V384H320H321V320H320ZM320 384V383H256V384V385H320V384Z" fill="#E9EAEB" mask="url(#path-81-inside-40_31_2893)"/>
<mask id="path-83-inside-41_31_2893" fill="white">
<path d="M320 320H384V384H320V320Z"/>
</mask>
<path d="M384 384V385H385V384H384ZM384 320H383V384H384H385V320H384ZM384 384V383H320V384V385H384V384Z" fill="#E9EAEB" mask="url(#path-83-inside-41_31_2893)"/>
<mask id="path-85-inside-42_31_2893" fill="white">
<path d="M384 320H448V384H384V320Z"/>
</mask>
<path d="M448 384V385H449V384H448ZM448 320H447V384H448H449V320H448ZM448 384V383H384V384V385H448V384Z" fill="#E9EAEB" mask="url(#path-85-inside-42_31_2893)"/>
<mask id="path-87-inside-43_31_2893" fill="white">
<path d="M0 384H64V448H0V384Z"/>
</mask>
<path d="M64 448V449H65V448H64ZM64 384H63V448H64H65V384H64ZM64 448V447H0V448V449H64V448Z" fill="#E9EAEB" mask="url(#path-87-inside-43_31_2893)"/>
<mask id="path-89-inside-44_31_2893" fill="white">
<path d="M64 384H128V448H64V384Z"/>
</mask>
<path d="M128 448V449H129V448H128ZM128 384H127V448H128H129V384H128ZM128 448V447H64V448V449H128V448Z" fill="#E9EAEB" mask="url(#path-89-inside-44_31_2893)"/>
<mask id="path-91-inside-45_31_2893" fill="white">
<path d="M128 384H192V448H128V384Z"/>
</mask>
<path d="M192 448V449H193V448H192ZM192 384H191V448H192H193V384H192ZM192 448V447H128V448V449H192V448Z" fill="#E9EAEB" mask="url(#path-91-inside-45_31_2893)"/>
<mask id="path-93-inside-46_31_2893" fill="white">
<path d="M192 384H256V448H192V384Z"/>
</mask>
<path d="M256 448V449H257V448H256ZM256 384H255V448H256H257V384H256ZM256 448V447H192V448V449H256V448Z" fill="#E9EAEB" mask="url(#path-93-inside-46_31_2893)"/>
<mask id="path-95-inside-47_31_2893" fill="white">
<path d="M256 384H320V448H256V384Z"/>
</mask>
<path d="M320 448V449H321V448H320ZM320 384H319V448H320H321V384H320ZM320 448V447H256V448V449H320V448Z" fill="#E9EAEB" mask="url(#path-95-inside-47_31_2893)"/>
<mask id="path-97-inside-48_31_2893" fill="white">
<path d="M320 384H384V448H320V384Z"/>
</mask>
<path d="M384 448V449H385V448H384ZM384 384H383V448H384H385V384H384ZM384 448V447H320V448V449H384V448Z" fill="#E9EAEB" mask="url(#path-97-inside-48_31_2893)"/>
<mask id="path-99-inside-49_31_2893" fill="white">
<path d="M384 384H448V448H384V384Z"/>
</mask>
<path d="M384 384H448V448H384V384Z" fill="#F5F5F5"/>
<path d="M448 448V449H449V448H448ZM448 384H447V448H448H449V384H448ZM448 448V447H384V448V449H448V448Z" fill="#E9EAEB" mask="url(#path-99-inside-49_31_2893)"/>
<mask id="path-101-inside-50_31_2893" fill="white">
<path d="M0 448H64V512H0V448Z"/>
</mask>
<path d="M64 512V513H65V512H64ZM64 448H63V512H64H65V448H64ZM64 512V511H0V512V513H64V512Z" fill="#E9EAEB" mask="url(#path-101-inside-50_31_2893)"/>
<mask id="path-103-inside-51_31_2893" fill="white">
<path d="M64 448H128V512H64V448Z"/>
</mask>
<path d="M128 512V513H129V512H128ZM128 448H127V512H128H129V448H128ZM128 512V511H64V512V513H128V512Z" fill="#E9EAEB" mask="url(#path-103-inside-51_31_2893)"/>
<mask id="path-105-inside-52_31_2893" fill="white">
<path d="M128 448H192V512H128V448Z"/>
</mask>
<path d="M192 512V513H193V512H192ZM192 448H191V512H192H193V448H192ZM192 512V511H128V512V513H192V512Z" fill="#E9EAEB" mask="url(#path-105-inside-52_31_2893)"/>
<mask id="path-107-inside-53_31_2893" fill="white">
<path d="M192 448H256V512H192V448Z"/>
</mask>
<path d="M256 512V513H257V512H256ZM256 448H255V512H256H257V448H256ZM256 512V511H192V512V513H256V512Z" fill="#E9EAEB" mask="url(#path-107-inside-53_31_2893)"/>
<mask id="path-109-inside-54_31_2893" fill="white">
<path d="M256 448H320V512H256V448Z"/>
</mask>
<path d="M256 448H320V512H256V448Z" fill="#F5F5F5"/>
<path d="M320 512V513H321V512H320ZM320 448H319V512H320H321V448H320ZM320 512V511H256V512V513H320V512Z" fill="#E9EAEB" mask="url(#path-109-inside-54_31_2893)"/>
<mask id="path-111-inside-55_31_2893" fill="white">
<path d="M320 448H384V512H320V448Z"/>
</mask>
<path d="M384 512V513H385V512H384ZM384 448H383V512H384H385V448H384ZM384 512V511H320V512V513H384V512Z" fill="#E9EAEB" mask="url(#path-111-inside-55_31_2893)"/>
<mask id="path-113-inside-56_31_2893" fill="white">
<path d="M384 448H448V512H384V448Z"/>
</mask>
<path d="M448 512V513H449V512H448ZM448 448H447V512H448H449V448H448ZM448 512V511H384V512V513H448V512Z" fill="#E9EAEB" mask="url(#path-113-inside-56_31_2893)"/>
<mask id="path-115-inside-57_31_2893" fill="white">
<path d="M0 512H64V576H0V512Z"/>
</mask>
<path d="M64 576V577H65V576H64ZM64 512H63V576H64H65V512H64ZM64 576V575H0V576V577H64V576Z" fill="#E9EAEB" mask="url(#path-115-inside-57_31_2893)"/>
<mask id="path-117-inside-58_31_2893" fill="white">
<path d="M64 512H128V576H64V512Z"/>
</mask>
<path d="M128 576V577H129V576H128ZM128 512H127V576H128H129V512H128ZM128 576V575H64V576V577H128V576Z" fill="#E9EAEB" mask="url(#path-117-inside-58_31_2893)"/>
<mask id="path-119-inside-59_31_2893" fill="white">
<path d="M128 512H192V576H128V512Z"/>
</mask>
<path d="M128 512H192V576H128V512Z" fill="#F5F5F5"/>
<path d="M192 576V577H193V576H192ZM192 512H191V576H192H193V512H192ZM192 576V575H128V576V577H192V576Z" fill="#E9EAEB" mask="url(#path-119-inside-59_31_2893)"/>
<mask id="path-121-inside-60_31_2893" fill="white">
<path d="M192 512H256V576H192V512Z"/>
</mask>
<path d="M256 576V577H257V576H256ZM256 512H255V576H256H257V512H256ZM256 576V575H192V576V577H256V576Z" fill="#E9EAEB" mask="url(#path-121-inside-60_31_2893)"/>
<mask id="path-123-inside-61_31_2893" fill="white">
<path d="M256 512H320V576H256V512Z"/>
</mask>
<path d="M320 576V577H321V576H320ZM320 512H319V576H320H321V512H320ZM320 576V575H256V576V577H320V576Z" fill="#E9EAEB" mask="url(#path-123-inside-61_31_2893)"/>
<mask id="path-125-inside-62_31_2893" fill="white">
<path d="M320 512H384V576H320V512Z"/>
</mask>
<path d="M384 576V577H385V576H384ZM384 512H383V576H384H385V512H384ZM384 576V575H320V576V577H384V576Z" fill="#E9EAEB" mask="url(#path-125-inside-62_31_2893)"/>
<mask id="path-127-inside-63_31_2893" fill="white">
<path d="M384 512H448V576H384V512Z"/>
</mask>
<path d="M448 576V577H449V576H448ZM448 512H447V576H448H449V512H448ZM448 576V575H384V576V577H448V576Z" fill="#E9EAEB" mask="url(#path-127-inside-63_31_2893)"/>
<mask id="path-129-inside-64_31_2893" fill="white">
<path d="M0 576H64V640H0V576Z"/>
</mask>
<path d="M64 640V641H65V640H64ZM64 576H63V640H64H65V576H64ZM64 640V639H0V640V641H64V640Z" fill="#E9EAEB" mask="url(#path-129-inside-64_31_2893)"/>
<mask id="path-131-inside-65_31_2893" fill="white">
<path d="M64 576H128V640H64V576Z"/>
</mask>
<path d="M128 640V641H129V640H128ZM128 576H127V640H128H129V576H128ZM128 640V639H64V640V641H128V640Z" fill="#E9EAEB" mask="url(#path-131-inside-65_31_2893)"/>
<mask id="path-133-inside-66_31_2893" fill="white">
<path d="M128 576H192V640H128V576Z"/>
</mask>
<path d="M192 640V641H193V640H192ZM192 576H191V640H192H193V576H192ZM192 640V639H128V640V641H192V640Z" fill="#E9EAEB" mask="url(#path-133-inside-66_31_2893)"/>
<mask id="path-135-inside-67_31_2893" fill="white">
<path d="M192 576H256V640H192V576Z"/>
</mask>
<path d="M256 640V641H257V640H256ZM256 576H255V640H256H257V576H256ZM256 640V639H192V640V641H256V640Z" fill="#E9EAEB" mask="url(#path-135-inside-67_31_2893)"/>
<mask id="path-137-inside-68_31_2893" fill="white">
<path d="M256 576H320V640H256V576Z"/>
</mask>
<path d="M320 640V641H321V640H320ZM320 576H319V640H320H321V576H320ZM320 640V639H256V640V641H320V640Z" fill="#E9EAEB" mask="url(#path-137-inside-68_31_2893)"/>
<mask id="path-139-inside-69_31_2893" fill="white">
<path d="M320 576H384V640H320V576Z"/>
</mask>
<path d="M384 640V641H385V640H384ZM384 576H383V640H384H385V576H384ZM384 640V639H320V640V641H384V640Z" fill="#E9EAEB" mask="url(#path-139-inside-69_31_2893)"/>
<mask id="path-141-inside-70_31_2893" fill="white">
<path d="M384 576H448V640H384V576Z"/>
</mask>
<path d="M384 576H448V640H384V576Z" fill="#F5F5F5"/>
<path d="M448 640V641H449V640H448ZM448 576H447V640H448H449V576H448ZM448 640V639H384V640V641H448V640Z" fill="#E9EAEB" mask="url(#path-141-inside-70_31_2893)"/>
<mask id="path-143-inside-71_31_2893" fill="white">
<path d="M0 640H64V704H0V640Z"/>
</mask>
<path d="M64 704V705H65V704H64ZM64 640H63V704H64H65V640H64ZM64 704V703H0V704V705H64V704Z" fill="#E9EAEB" mask="url(#path-143-inside-71_31_2893)"/>
<mask id="path-145-inside-72_31_2893" fill="white">
<path d="M64 640H128V704H64V640Z"/>
</mask>
<path d="M128 704V705H129V704H128ZM128 640H127V704H128H129V640H128ZM128 704V703H64V704V705H128V704Z" fill="#E9EAEB" mask="url(#path-145-inside-72_31_2893)"/>
<mask id="path-147-inside-73_31_2893" fill="white">
<path d="M128 640H192V704H128V640Z"/>
</mask>
<path d="M192 704V705H193V704H192ZM192 640H191V704H192H193V640H192ZM192 704V703H128V704V705H192V704Z" fill="#E9EAEB" mask="url(#path-147-inside-73_31_2893)"/>
<mask id="path-149-inside-74_31_2893" fill="white">
<path d="M192 640H256V704H192V640Z"/>
</mask>
<path d="M256 704V705H257V704H256ZM256 640H255V704H256H257V640H256ZM256 704V703H192V704V705H256V704Z" fill="#E9EAEB" mask="url(#path-149-inside-74_31_2893)"/>
<mask id="path-151-inside-75_31_2893" fill="white">
<path d="M256 640H320V704H256V640Z"/>
</mask>
<path d="M256 640H320V704H256V640Z" fill="#F5F5F5"/>
<path d="M320 704V705H321V704H320ZM320 640H319V704H320H321V640H320ZM320 704V703H256V704V705H320V704Z" fill="#E9EAEB" mask="url(#path-151-inside-75_31_2893)"/>
<mask id="path-153-inside-76_31_2893" fill="white">
<path d="M320 640H384V704H320V640Z"/>
</mask>
<path d="M384 704V705H385V704H384ZM384 640H383V704H384H385V640H384ZM384 704V703H320V704V705H384V704Z" fill="#E9EAEB" mask="url(#path-153-inside-76_31_2893)"/>
<mask id="path-155-inside-77_31_2893" fill="white">
<path d="M384 640H448V704H384V640Z"/>
</mask>
<path d="M448 704V705H449V704H448ZM448 640H447V704H448H449V640H448ZM448 704V703H384V704V705H448V704Z" fill="#E9EAEB" mask="url(#path-155-inside-77_31_2893)"/>
<mask id="path-157-inside-78_31_2893" fill="white">
<path d="M0 704H64V768H0V704Z"/>
</mask>
<path d="M64 768V769H65V768H64ZM64 704H63V768H64H65V704H64ZM64 768V767H0V768V769H64V768Z" fill="#E9EAEB" mask="url(#path-157-inside-78_31_2893)"/>
<mask id="path-159-inside-79_31_2893" fill="white">
<path d="M64 704H128V768H64V704Z"/>
</mask>
<path d="M128 768V769H129V768H128ZM128 704H127V768H128H129V704H128ZM128 768V767H64V768V769H128V768Z" fill="#E9EAEB" mask="url(#path-159-inside-79_31_2893)"/>
<mask id="path-161-inside-80_31_2893" fill="white">
<path d="M128 704H192V768H128V704Z"/>
</mask>
<path d="M192 768V769H193V768H192ZM192 704H191V768H192H193V704H192ZM192 768V767H128V768V769H192V768Z" fill="#E9EAEB" mask="url(#path-161-inside-80_31_2893)"/>
<mask id="path-163-inside-81_31_2893" fill="white">
<path d="M192 704H256V768H192V704Z"/>
</mask>
<path d="M256 768V769H257V768H256ZM256 704H255V768H256H257V704H256ZM256 768V767H192V768V769H256V768Z" fill="#E9EAEB" mask="url(#path-163-inside-81_31_2893)"/>
<mask id="path-165-inside-82_31_2893" fill="white">
<path d="M256 704H320V768H256V704Z"/>
</mask>
<path d="M320 768V769H321V768H320ZM320 704H319V768H320H321V704H320ZM320 768V767H256V768V769H320V768Z" fill="#E9EAEB" mask="url(#path-165-inside-82_31_2893)"/>
<mask id="path-167-inside-83_31_2893" fill="white">
<path d="M320 704H384V768H320V704Z"/>
</mask>
<path d="M384 768V769H385V768H384ZM384 704H383V768H384H385V704H384ZM384 768V767H320V768V769H384V768Z" fill="#E9EAEB" mask="url(#path-167-inside-83_31_2893)"/>
<mask id="path-169-inside-84_31_2893" fill="white">
<path d="M384 704H448V768H384V704Z"/>
</mask>
<path d="M448 768V769H449V768H448ZM448 704H447V768H448H449V704H448ZM448 768V767H384V768V769H448V768Z" fill="#E9EAEB" mask="url(#path-169-inside-84_31_2893)"/>
<mask id="path-171-inside-85_31_2893" fill="white">
<path d="M0 768H64V832H0V768Z"/>
</mask>
<path d="M64 832V833H65V832H64ZM64 768H63V832H64H65V768H64ZM64 832V831H0V832V833H64V832Z" fill="#E9EAEB" mask="url(#path-171-inside-85_31_2893)"/>
<mask id="path-173-inside-86_31_2893" fill="white">
<path d="M64 768H128V832H64V768Z"/>
</mask>
<path d="M128 832V833H129V832H128ZM128 768H127V832H128H129V768H128ZM128 832V831H64V832V833H128V832Z" fill="#E9EAEB" mask="url(#path-173-inside-86_31_2893)"/>
<mask id="path-175-inside-87_31_2893" fill="white">
<path d="M128 768H192V832H128V768Z"/>
</mask>
<path d="M192 832V833H193V832H192ZM192 768H191V832H192H193V768H192ZM192 832V831H128V832V833H192V832Z" fill="#E9EAEB" mask="url(#path-175-inside-87_31_2893)"/>
<mask id="path-177-inside-88_31_2893" fill="white">
<path d="M192 768H256V832H192V768Z"/>
</mask>
<path d="M256 832V833H257V832H256ZM256 768H255V832H256H257V768H256ZM256 832V831H192V832V833H256V832Z" fill="#E9EAEB" mask="url(#path-177-inside-88_31_2893)"/>
<mask id="path-179-inside-89_31_2893" fill="white">
<path d="M256 768H320V832H256V768Z"/>
</mask>
<path d="M256 768H320V832H256V768Z" fill="#F5F5F5"/>
<path d="M320 832V833H321V832H320ZM320 768H319V832H320H321V768H320ZM320 832V831H256V832V833H320V832Z" fill="#E9EAEB" mask="url(#path-179-inside-89_31_2893)"/>
<mask id="path-181-inside-90_31_2893" fill="white">
<path d="M320 768H384V832H320V768Z"/>
</mask>
<path d="M384 832V833H385V832H384ZM384 768H383V832H384H385V768H384ZM384 832V831H320V832V833H384V832Z" fill="#E9EAEB" mask="url(#path-181-inside-90_31_2893)"/>
<mask id="path-183-inside-91_31_2893" fill="white">
<path d="M384 768H448V832H384V768Z"/>
</mask>
<path d="M448 832V833H449V832H448ZM448 768H447V832H448H449V768H448ZM448 832V831H384V832V833H448V832Z" fill="#E9EAEB" mask="url(#path-183-inside-91_31_2893)"/>
<mask id="path-185-inside-92_31_2893" fill="white">
<path d="M0 832H64V896H0V832Z"/>
</mask>
<path d="M64 896V897H65V896H64ZM64 832H63V896H64H65V832H64ZM64 896V895H0V896V897H64V896Z" fill="#E9EAEB" mask="url(#path-185-inside-92_31_2893)"/>
<mask id="path-187-inside-93_31_2893" fill="white">
<path d="M64 832H128V896H64V832Z"/>
</mask>
<path d="M64 832H128V896H64V832Z" fill="#F5F5F5"/>
<path d="M128 896V897H129V896H128ZM128 832H127V896H128H129V832H128ZM128 896V895H64V896V897H128V896Z" fill="#E9EAEB" mask="url(#path-187-inside-93_31_2893)"/>
<mask id="path-189-inside-94_31_2893" fill="white">
<path d="M128 832H192V896H128V832Z"/>
</mask>
<path d="M192 896V897H193V896H192ZM192 832H191V896H192H193V832H192ZM192 896V895H128V896V897H192V896Z" fill="#E9EAEB" mask="url(#path-189-inside-94_31_2893)"/>
<mask id="path-191-inside-95_31_2893" fill="white">
<path d="M192 832H256V896H192V832Z"/>
</mask>
<path d="M256 896V897H257V896H256ZM256 832H255V896H256H257V832H256ZM256 896V895H192V896V897H256V896Z" fill="#E9EAEB" mask="url(#path-191-inside-95_31_2893)"/>
<mask id="path-193-inside-96_31_2893" fill="white">
<path d="M256 832H320V896H256V832Z"/>
</mask>
<path d="M320 896V897H321V896H320ZM320 832H319V896H320H321V832H320ZM320 896V895H256V896V897H320V896Z" fill="#E9EAEB" mask="url(#path-193-inside-96_31_2893)"/>
<mask id="path-195-inside-97_31_2893" fill="white">
<path d="M320 832H384V896H320V832Z"/>
</mask>
<path d="M384 896V897H385V896H384ZM384 832H383V896H384H385V832H384ZM384 896V895H320V896V897H384V896Z" fill="#E9EAEB" mask="url(#path-195-inside-97_31_2893)"/>
<mask id="path-197-inside-98_31_2893" fill="white">
<path d="M384 832H448V896H384V832Z"/>
</mask>
<path d="M448 896V897H449V896H448ZM448 832H447V896H448H449V832H448ZM448 896V895H384V896V897H448V896Z" fill="#E9EAEB" mask="url(#path-197-inside-98_31_2893)"/>
</g>
<rect x="0.5" y="0.5" width="959" height="959" stroke="#E9EAEB"/>
</g>
<defs>
<radialGradient id="paint0_radial_31_2893" cx="0" cy="0" r="1" gradientUnits="userSpaceOnUse" gradientTransform="translate(480 -0.000114441) rotate(90) scale(960 501.059)">
<stop/>
<stop offset="0.953125" stop-opacity="0"/>
</radialGradient>
<clipPath id="clip0_31_2893">
<rect width="960" height="960" fill="white"/>
</clipPath>
</defs>
</svg>
