<svg width="247" height="47" viewBox="0 0 247 47" fill="none" xmlns="http://www.w3.org/2000/svg">
<path d="M69.9214 34.6593C65.3571 34.6593 62.5298 30.5678 62.5298 24.9045C62.5298 19.2413 64.9101 15.1212 69.8929 15.1212C73.1673 15.1212 75.3227 17.2225 75.7156 19.9986H83.3292C82.9363 16.5506 81.3988 13.5239 78.7109 11.5052C76.5271 9.82243 73.5032 8.78601 69.9214 8.78601C60.7388 8.78601 54.7766 15.7362 54.7766 24.9045C54.7766 34.0728 60.9353 40.8807 69.9783 40.8807C74.3176 40.8807 77.4809 39.6763 79.8328 37.3757C81.9312 35.3569 83.3321 32.5552 83.5285 29.5001H75.9149C75.5789 32.4982 73.3381 34.6565 69.9242 34.6565L69.9214 34.6593Z" fill="black"/>
<path d="M97.2012 17.5615C90.1456 17.5615 85.4163 22.6069 85.4163 29.2496C85.4163 35.8923 90.1485 40.9377 97.2012 40.9377C104.254 40.9377 108.958 35.8923 108.958 29.2496C108.958 22.6069 104.311 17.5615 97.2012 17.5615ZM97.1727 35.9208C94.1204 35.9208 92.5259 33.2586 92.5259 29.2496C92.5259 25.2406 94.1204 22.5214 97.1727 22.5214C100.225 22.5214 101.876 25.2406 101.876 29.2496C101.848 33.2586 100.225 35.9208 97.1727 35.9208Z" fill="black"/>
<path d="M118.542 15.2155C120.039 13.715 120.039 11.2834 118.542 9.78573C117.044 8.28521 114.615 8.28521 113.118 9.78573C111.62 11.2863 111.62 13.7178 113.118 15.2155C114.615 16.716 117.044 16.716 118.542 15.2155Z" fill="black"/>
<path d="M109.729 23.1109H112.668V40.2374H119.667V18.1509H109.729V23.1109Z" fill="black"/>
<path d="M137.263 17.5047C134.21 17.5047 132.084 18.7945 130.461 21.1777H130.321V18.151H123.573V40.2118H130.6V28.0197C130.6 25.3006 132.14 23.3673 134.464 23.3673C136.787 23.3673 137.906 24.9646 137.906 27.2908V40.2118H144.933V25.8615C144.933 20.9556 142.078 17.5075 137.263 17.5075V17.5047Z" fill="black"/>
<path d="M161.015 9.40387H147.886V40.2087H160.539C164.403 40.2087 167.509 39.2264 169.918 37.407C173.363 34.7732 175.265 30.4283 175.265 24.9899C175.265 15.5711 169.525 9.40672 161.015 9.40672V9.40387ZM159.981 33.8194H155.502V15.796H160.066C164.853 15.796 167.569 19.4121 167.569 25.0184C167.541 30.6532 164.967 33.8194 159.984 33.8194H159.981Z" fill="black"/>
<path d="M195.686 20.4203C193.781 18.7119 191.29 17.6727 188.155 17.6727C181.436 17.6727 176.846 22.7181 176.846 29.3039C176.846 35.8896 181.325 41.0205 188.602 41.0205C191.401 41.0205 193.642 40.2915 195.49 39.0017C197.42 37.655 198.71 35.7786 199.186 33.7883H192.355C191.74 35.1607 190.535 35.9751 188.688 35.9751C185.803 35.9751 184.18 34.1243 183.733 31.1546H199.578C199.607 26.6416 198.32 22.8291 195.686 20.4203ZM183.762 26.952C184.237 24.3182 185.61 22.6355 188.269 22.6355C190.535 22.6355 192.19 24.3182 192.44 26.952H183.762Z" fill="black"/>
<path d="M213.787 26.4196C210.988 25.9156 208.496 25.6907 208.496 24.1503C208.496 22.7779 209.84 22.1316 211.549 22.1316C213.482 22.1316 214.823 22.7494 215.076 24.7112H221.543C221.207 20.3663 217.847 17.6471 211.606 17.6471C206.398 17.6471 202.087 20.0587 202.087 24.7112C202.087 29.8961 206.176 30.9069 210.008 31.5504C212.947 32.0544 215.606 32.2793 215.606 34.2696C215.606 35.6989 214.262 36.4563 212.164 36.4563C209.84 36.4563 208.385 35.3914 208.103 33.1762H201.469C201.691 38.0536 205.723 41.0234 212.192 41.0234C217.958 41.0234 222.215 38.5291 222.215 33.7087C222.243 28.0739 217.679 27.0659 213.787 26.4196Z" fill="black"/>
<path d="M238.353 26.4477L246.106 18.1506H238.017L231.465 25.6077V9.40662H224.552V40.2399H231.465V33.4577L233.592 31.214L238.882 40.2399H247L238.35 26.4505L238.353 26.4477Z" fill="black"/>
<path d="M23.354 26.2599C24.92 26.2599 26.1899 24.9871 26.1899 23.4183C26.1899 21.8494 24.92 20.5767 23.354 20.5767C21.788 20.5767 20.5181 21.8494 20.5181 23.4183C20.5181 24.9871 21.788 26.2599 23.354 26.2599Z" fill="#FFD200"/>
<path d="M40.3181 26.2599C41.8841 26.2599 43.154 24.9871 43.154 23.4183C43.154 21.8494 41.8841 20.5767 40.3181 20.5767C38.7521 20.5767 37.4822 21.8494 37.4822 23.4183C37.4822 24.9871 38.7521 26.2599 40.3181 26.2599Z" fill="#FFD200"/>
<path d="M40.3181 42.9905C41.8841 42.9905 43.154 41.7178 43.154 40.1489C43.154 38.58 41.8841 37.3073 40.3181 37.3073C38.7521 37.3073 37.4822 38.58 37.4822 40.1489C37.4822 41.7178 38.7521 42.9905 40.3181 42.9905Z" fill="#FFD200"/>
<path d="M46.4227 5.87333C46.1977 2.76124 43.7064 0.238543 40.6 0.0164541C38.6126 -0.123063 36.8216 0.634316 35.5603 1.92129C34.6093 2.90361 33.3195 3.49015 31.9499 3.49015H31.4459C30.0451 3.49015 28.7296 2.90076 27.7502 1.89282C26.6027 0.716888 25.0054 0.0136062 23.2429 0.0136062C21.4804 0.0136062 19.8831 0.742513 18.7356 1.89282C17.7562 2.90076 16.4407 3.49015 15.0398 3.49015H14.5644C13.192 3.49015 11.8765 2.9577 10.9255 1.97539C10.7291 1.77893 10.5326 1.58246 10.339 1.41447C7.95864 -0.518837 4.45932 -0.464738 2.1644 1.58246C-0.606015 4.01974 -0.719907 8.28214 1.85689 10.8589C1.88536 10.8874 1.91384 10.9159 1.93946 10.9444C2.9474 11.8982 3.47985 13.2421 3.47985 14.6174V15.0929C3.47985 16.4937 2.89331 17.812 1.88536 18.7915C0.706586 19.9446 0.00615269 21.542 0.00615269 23.3073C0.00615269 25.0726 0.735059 26.6699 1.88252 27.8202C2.89046 28.8026 3.477 30.118 3.477 31.5189V32.1624C3.477 33.5348 2.89046 34.8246 1.90814 35.7784C0.678113 36.9857 -0.0764187 38.694 0.00615269 40.5733C0.14567 43.8818 2.83351 46.544 6.1079 46.6551C8.01274 46.712 9.71826 45.9546 10.9227 44.6933C11.8737 43.711 13.1635 43.096 14.533 43.096H15.0655C16.4379 43.096 17.7248 43.6853 18.6758 44.6933C19.9343 46.0116 21.7566 46.7661 23.744 46.6266C26.8504 46.4017 29.3703 43.879 29.5952 40.7413C29.8458 37.0141 26.9358 33.9305 23.2685 33.9305C21.5317 33.9305 19.9372 34.631 18.7897 35.7813C17.8103 36.7636 16.4948 37.3501 15.1224 37.3501H14.5359C13.1635 37.3501 11.8196 36.8177 10.8401 35.8097C10.8211 35.7908 10.8021 35.7718 10.7831 35.7528C9.77521 34.7705 9.18867 33.455 9.18867 32.0542V31.4932C9.18867 30.0924 9.77521 28.7741 10.7831 27.7946C11.9591 26.6443 12.6595 25.047 12.6595 23.2817C12.6595 21.5163 11.9306 19.919 10.7831 18.7687C9.77521 17.7864 9.18867 16.4709 9.18867 15.0701V14.5661C9.18867 13.1652 9.77521 11.8469 10.7575 10.8675C10.7765 10.8485 10.7955 10.8295 10.8145 10.8105L10.8714 10.7536C11.8509 9.77127 13.1663 9.18473 14.5672 9.18473H15.0712C16.472 9.18473 17.7875 9.77412 18.767 10.7821C19.9144 11.958 21.5117 12.6613 23.2742 12.6613C25.0367 12.6613 26.634 11.9324 27.7815 10.7821C28.7609 9.77412 30.0764 9.18473 31.4773 9.18473H31.9243C33.3252 9.18473 34.6406 9.77412 35.6201 10.7821C36.7675 11.958 38.3649 12.6613 40.1273 12.6613C43.7662 12.6897 46.6789 9.60613 46.4255 5.87903L46.4227 5.87333Z" fill="#FFD200"/>
</svg>
