<svg width="225" height="66" viewBox="0 0 225 66" fill="none" xmlns="http://www.w3.org/2000/svg">
<path d="M62.9371 30.2915C58.7908 30.2915 56.2089 26.5489 56.2089 21.3897C56.2089 16.2305 58.3609 12.4469 62.8964 12.4469C65.8701 12.4469 67.8236 14.3758 68.1772 16.8991H75.1013C74.7503 13.7482 73.341 10.9919 70.9168 9.13979C68.9225 7.60279 66.1829 6.65753 62.9371 6.65753C54.6064 6.65753 49.1678 13.0002 49.1678 21.3897C49.1678 29.7792 54.7615 36.004 62.9753 36.004C66.9257 36.004 69.7823 34.9 71.9318 32.8122C73.8472 30.9601 75.1013 28.401 75.2946 25.6036H68.3706C68.0577 28.3216 66.0227 30.2915 62.9346 30.2915H62.9371Z" fill="black"/>
<path d="M88.0618 14.6552C81.6464 14.6552 77.345 19.2636 77.345 25.3296C77.345 31.3957 81.6464 36.0041 88.0618 36.0041C94.4771 36.0041 98.7404 31.3957 98.7404 25.3296C98.7404 19.2636 94.5152 14.6552 88.0618 14.6552ZM88.0211 31.4341C85.2433 31.4341 83.7959 28.9928 83.7959 25.3296C83.7959 21.6664 85.2433 19.1842 88.0211 19.1842C90.7988 19.1842 92.2844 21.6664 92.2844 25.3296C92.2844 28.9928 90.7988 31.4341 88.0211 31.4341Z" fill="black"/>
<path d="M107.806 12.507C109.166 11.1375 109.166 8.91699 107.806 7.54745C106.446 6.17791 104.241 6.17791 102.881 7.54745C101.521 8.91699 101.521 11.1375 102.881 12.507C104.241 13.8765 106.446 13.8765 107.806 12.507Z" fill="black"/>
<path d="M99.798 19.7425H102.451V35.3738H108.826V15.2057H99.798V19.7425Z" fill="black"/>
<path d="M124.46 14.614C121.682 14.614 119.767 15.7949 118.279 17.9621H118.162V15.2058H112.021V35.3738H118.396V24.2254C118.396 21.7431 119.805 19.9705 121.916 19.9705C124.028 19.9705 125.045 21.4281 125.045 23.5542V35.3712H131.42V22.2555C131.42 17.7649 128.838 14.614 124.458 14.614H124.46Z" fill="black"/>
<path d="M146.377 7.20807H134.447V35.3711H145.947C149.468 35.3711 152.284 34.4642 154.474 32.812C157.602 30.4091 159.325 26.4308 159.325 21.4663C159.325 12.8412 154.123 7.20807 146.377 7.20807ZM145.438 29.5048H141.371V13.0384H145.517C149.859 13.0384 152.324 16.3481 152.324 21.4689C152.324 26.5897 149.976 29.5048 145.441 29.5048H145.438Z" fill="black"/>
<path d="M178.227 17.2582C176.505 15.6828 174.238 14.7375 171.382 14.7375C165.279 14.7375 161.095 19.346 161.095 25.3736C161.095 31.4012 165.162 36.0891 171.774 36.0891C174.317 36.0891 176.35 35.4205 178.031 34.237C179.791 33.0151 180.964 31.2834 181.394 29.4723H175.175C174.628 30.7326 173.531 31.4806 171.85 31.4806C169.23 31.4806 167.742 29.7874 167.353 27.0694H181.748C181.786 22.9733 180.613 19.4664 178.227 17.2608V17.2582ZM167.393 23.2474C167.823 20.8446 169.075 19.3076 171.501 19.3076C173.575 19.3076 175.06 20.8446 175.297 23.2474H167.396H167.393Z" fill="black"/>
<path d="M194.344 22.7626C191.803 22.2887 189.534 22.094 189.534 20.6748C189.534 19.4145 190.747 18.8227 192.312 18.8227C194.072 18.8227 195.285 19.3735 195.519 21.1872H201.388C201.075 17.2089 198.025 14.7266 192.352 14.7266C187.619 14.7266 183.709 16.9322 183.709 21.1872C183.709 25.9134 187.425 26.8587 190.905 27.4504C193.566 27.9244 195.99 28.119 195.99 29.9327C195.99 31.2315 194.777 31.9411 192.861 31.9411C190.75 31.9411 189.419 30.9548 189.185 28.9465H183.162C183.358 33.3986 187.033 36.1166 192.902 36.1166C198.142 36.1166 202.016 33.8316 202.016 29.4204C202.016 24.2612 197.87 23.3543 194.349 22.7626H194.344Z" fill="black"/>
<path d="M217.009 22.7677L224.05 15.2056H216.696L210.751 22.0196V7.20807H204.453V35.3736H210.751V29.1898L212.669 27.1404L217.48 35.3736H224.872L217.009 22.7677Z" fill="black"/>
<path d="M20.961 24.0822C22.3854 24.0822 23.5402 22.9274 23.5402 21.503C23.5402 20.0785 22.3854 18.9237 20.961 18.9237C19.5365 18.9237 18.3817 20.0785 18.3817 21.503C18.3817 22.9274 19.5365 24.0822 20.961 24.0822Z" fill="#FFD200"/>
<path d="M35.5764 24.0729C37.0009 24.0729 38.1557 22.9182 38.1557 21.4937C38.1557 20.0692 37.0009 18.9144 35.5764 18.9144C34.152 18.9144 32.9972 20.0692 32.9972 21.4937C32.9972 22.9182 34.152 24.0729 35.5764 24.0729Z" fill="#FFD200"/>
<path d="M35.6796 38.6886C37.1041 38.6886 38.2588 37.5339 38.2588 36.1094C38.2588 34.6849 37.1041 33.5302 35.6796 33.5302C34.2551 33.5302 33.1003 34.6849 33.1003 36.1094C33.1003 37.5339 34.2551 38.6886 35.6796 38.6886Z" fill="#FFD200"/>
<path d="M42.2692 5.38207C42.068 2.53862 39.7938 0.235674 36.9668 0.0179317C35.1688 -0.120399 33.5261 0.571252 32.3826 1.75218C31.5141 2.64621 30.3477 3.18416 29.1048 3.18416H28.6413C27.3679 3.18416 26.1658 2.64108 25.2719 1.72913C24.2252 0.660911 22.771 0 21.1665 0C19.562 0 18.1078 0.660911 17.061 1.72657C16.1671 2.63852 14.965 3.18159 13.6916 3.18159H13.251C12.0107 3.18159 10.8061 2.7 9.95038 1.79829C9.78229 1.62154 9.59892 1.44991 9.40282 1.29108C7.23549 -0.479032 4.05964 -0.414991 1.96617 1.44222C-0.560253 3.67856 -0.651937 7.55693 1.69112 9.9111C1.71404 9.93416 1.73696 9.95721 1.75988 9.97771C2.66654 10.8512 3.16317 12.0732 3.16317 13.3386V13.7715C3.16317 15.0524 2.62324 16.2589 1.71658 17.1606C0.657116 18.2135 4.26555e-05 19.6736 4.26555e-05 21.29C4.26555e-05 22.9065 0.657116 24.3666 1.71404 25.4169C2.6207 26.316 3.15807 27.5251 3.15807 28.806V29.3824C3.15807 30.6325 2.62579 31.8057 1.73696 32.6792C0.616368 33.7833 -0.0610805 35.3434 0.00513625 37.0622C0.122289 40.0748 2.56976 42.5288 5.56734 42.6339C7.28643 42.6928 8.84507 41.996 9.94019 40.8484C10.8036 39.9416 11.9751 39.3985 13.223 39.3985H13.7196C14.9676 39.3985 16.1391 39.9441 17.0025 40.8484C18.1434 42.0473 19.7938 42.7543 21.602 42.6211C24.4366 42.4136 26.7261 40.1029 26.9248 37.2518C27.1642 33.855 24.4926 31.0244 21.1665 31.0244C19.5773 31.0244 18.1383 31.6725 17.0941 32.7177C16.2028 33.6117 15.0134 34.1419 13.7527 34.1419H13.2281C11.97 34.1419 10.7526 33.6475 9.87143 32.7433C9.8587 32.7305 9.84341 32.7151 9.83068 32.7023C8.92402 31.8006 8.3841 30.594 8.3841 29.3132V28.806C8.3841 27.5251 8.92402 26.3186 9.83068 25.4169C10.8901 24.364 11.5472 22.9039 11.5472 21.2875C11.5472 19.6711 10.8901 18.2109 9.83323 17.1606C8.92657 16.2615 8.38919 15.0524 8.38919 13.7715V13.3232C8.38919 12.0501 8.91383 10.8435 9.81795 9.95209C9.83068 9.93928 9.84596 9.92647 9.8587 9.9111C9.87143 9.89573 9.88416 9.88549 9.8969 9.87268C10.7832 8.96328 11.9827 8.43558 13.2485 8.43558H13.6967C14.9701 8.43558 16.1697 8.97865 17.0661 9.88805C18.1129 10.9537 19.5645 11.6121 21.169 11.6121C22.7735 11.6121 24.2252 10.9537 25.2719 9.88805C26.1658 8.97865 27.3679 8.43558 28.6388 8.43558H29.0437C30.3171 8.43558 31.5167 8.97609 32.4106 9.88805C33.4573 10.9511 34.909 11.6121 36.5135 11.6121C39.8396 11.6121 42.5112 8.78141 42.2718 5.38207H42.2692Z" fill="#FFD200"/>
<path d="M218.113 65.448C213.913 65.448 211.281 63.516 211.141 60.352H215.453C215.621 61.78 216.573 62.48 218.085 62.48C219.457 62.48 220.325 61.976 220.325 61.052C220.325 59.764 218.589 59.624 216.685 59.288C214.193 58.868 211.533 58.196 211.533 54.836C211.533 51.812 214.333 50.244 217.721 50.244C221.781 50.244 223.965 52.008 224.189 54.836H219.989C219.821 53.548 218.953 53.156 217.693 53.156C216.573 53.156 215.705 53.576 215.705 54.472C215.705 55.48 217.329 55.62 219.149 55.956C221.669 56.376 224.637 57.02 224.637 60.688C224.637 63.824 221.865 65.448 218.113 65.448Z" fill="black"/>
<path d="M203.061 65.42C198.329 65.42 195.417 62.144 195.417 57.804C195.417 53.52 198.413 50.244 202.781 50.244C204.825 50.244 206.449 50.916 207.681 52.036C209.389 53.604 210.229 56.096 210.201 59.008H199.897C200.177 60.94 201.241 62.144 203.117 62.144C204.321 62.144 205.105 61.612 205.497 60.716H209.949C209.641 62.004 208.801 63.236 207.541 64.104C206.337 64.944 204.881 65.42 203.061 65.42ZM199.925 56.292H205.581C205.413 54.584 204.349 53.492 202.865 53.492C201.129 53.492 200.233 54.584 199.925 56.292Z" fill="black"/>
<path d="M171.445 65V50.664H175.813V52.708H175.897C176.793 51.224 178.165 50.244 180.237 50.244C182.113 50.244 183.541 51.224 184.269 52.764H184.325C185.445 51.028 186.985 50.244 188.833 50.244C192.081 50.244 193.705 52.456 193.705 55.676V65H189.141V56.488C189.141 54.948 188.497 54.052 187.125 54.052C185.669 54.052 184.857 55.256 184.857 56.964V65H180.293V56.488C180.293 54.948 179.649 54.052 178.277 54.052C176.849 54.052 176.009 55.256 176.009 56.964V65H171.445Z" fill="black"/>
<path d="M160.244 65.364C157.388 65.364 155.344 63.824 155.344 60.996C155.344 57.832 157.864 56.88 160.832 56.488C163.52 56.152 164.472 55.872 164.472 54.892C164.472 53.968 163.884 53.352 162.512 53.352C161.056 53.352 160.328 53.996 160.188 55.2H155.988C156.1 52.54 158.144 50.272 162.484 50.272C164.64 50.272 166.096 50.664 167.132 51.448C168.364 52.344 168.952 53.744 168.952 55.536V62.76C168.952 63.908 169.064 64.552 169.456 64.804V65H165.032C164.808 64.692 164.668 64.132 164.556 63.404H164.5C163.66 64.608 162.4 65.364 160.244 65.364ZM161.7 62.452C163.408 62.452 164.584 61.416 164.584 59.876V58.168C163.996 58.476 163.156 58.7 162.232 58.924C160.468 59.316 159.74 59.764 159.74 60.856C159.74 62.004 160.58 62.452 161.7 62.452Z" fill="black"/>
<path d="M144.108 65.448C141.252 65.448 138.928 64.44 137.276 62.648C135.54 60.744 134.588 58.112 134.588 55.06C134.588 51.924 135.652 49.152 137.556 47.248C139.208 45.568 141.532 44.588 144.416 44.588C149.568 44.588 152.648 47.332 153.292 51.532H148.476C148.112 49.908 146.768 48.676 144.584 48.676C141.28 48.676 139.628 51.42 139.628 55.06C139.628 58.728 141.532 61.444 144.668 61.444C147.272 61.444 148.812 59.708 149.008 57.944V57.888H145.256V54.248H153.6V65H150.128L149.848 62.592H149.792C148.476 64.636 146.516 65.448 144.108 65.448Z" fill="black"/>
</svg>
