<svg width="120" height="134" viewBox="0 0 120 134" fill="none" xmlns="http://www.w3.org/2000/svg">
<g clip-path="url(#clip0_35_3833)">
<rect width="119.797" height="133.195" fill="#353536"/>
<path d="M58.25 54.3594H47.75V64.8594H58.25V54.3594Z" stroke="#F1C40F" stroke-width="1.75"/>
<path d="M72.25 54.3594H61.75V64.8594H72.25V54.3594Z" stroke="#F1C40F" stroke-width="1.75"/>
<path d="M58.25 68.3594H47.75V78.8594H58.25V68.3594Z" stroke="#F1C40F" stroke-width="1.75"/>
<path d="M72.25 68.3594H61.75V78.8594H72.25V68.3594Z" stroke="#F1C40F" stroke-width="1.75"/>
<path d="M102.312 91.7969H80.1875V113.922H102.312V91.7969Z" stroke="#F1C40F" stroke-opacity="0.1" stroke-width="1.75"/>
<path d="M131.812 91.7969H109.688V113.922H131.812V91.7969Z" stroke="#F1C40F" stroke-opacity="0.1" stroke-width="1.75"/>
<path d="M102.312 121.297H80.1875V143.422H102.312V121.297Z" stroke="#F1C40F" stroke-opacity="0.1" stroke-width="1.75"/>
<path d="M131.812 121.297H109.688V143.422H131.812V121.297Z" stroke="#F1C40F" stroke-opacity="0.1" stroke-width="1.75"/>
<path d="M11.3125 -9.20312H-10.8125V12.9219H11.3125V-9.20312Z" stroke="#F1C40F" stroke-opacity="0.1" stroke-width="1.75"/>
<path d="M40.8125 -9.20312H18.6875V12.9219H40.8125V-9.20312Z" stroke="#F1C40F" stroke-opacity="0.1" stroke-width="1.75"/>
<path d="M11.3125 20.2969H-10.8125V42.4219H11.3125V20.2969Z" stroke="#F1C40F" stroke-opacity="0.1" stroke-width="1.75"/>
<path d="M40.8125 20.2969H18.6875V42.4219H40.8125V20.2969Z" stroke="#F1C40F" stroke-opacity="0.1" stroke-width="1.75"/>
<path d="M11.3125 92.7969H-10.8125V114.922H11.3125V92.7969Z" stroke="#F1C40F" stroke-opacity="0.1" stroke-width="1.75"/>
<path d="M40.8125 92.7969H18.6875V114.922H40.8125V92.7969Z" stroke="#F1C40F" stroke-opacity="0.1" stroke-width="1.75"/>
<path d="M11.3125 122.297H-10.8125V144.422H11.3125V122.297Z" stroke="#F1C40F" stroke-opacity="0.1" stroke-width="1.75"/>
<path d="M40.8125 122.297H18.6875V144.422H40.8125V122.297Z" stroke="#F1C40F" stroke-opacity="0.1" stroke-width="1.75"/>
<path d="M102.312 -11.2031H80.1875V10.9219H102.312V-11.2031Z" stroke="#F1C40F" stroke-opacity="0.1" stroke-width="1.75"/>
<path d="M131.812 -11.2031H109.688V10.9219H131.812V-11.2031Z" stroke="#F1C40F" stroke-opacity="0.1" stroke-width="1.75"/>
<path d="M102.312 18.2969H80.1875V40.4219H102.312V18.2969Z" stroke="#F1C40F" stroke-opacity="0.1" stroke-width="1.75"/>
<path d="M131.812 18.2969H109.688V40.4219H131.812V18.2969Z" stroke="#F1C40F" stroke-opacity="0.1" stroke-width="1.75"/>
</g>
<defs>
<clipPath id="clip0_35_3833">
<rect width="119.797" height="133.195" fill="white"/>
</clipPath>
</defs>
</svg>
