<svg width="120" height="134" viewBox="0 0 120 134" fill="none" xmlns="http://www.w3.org/2000/svg">
<rect width="119.797" height="133.195" fill="#F8BF1E"/>
<path d="M34.6442 35.9351C32.1072 35.9351 30.1292 37.5261 30.1292 40.1491C30.1292 47.2011 46.0392 43.6321 46.0392 54.2531C46.0392 59.2411 41.6102 63.2401 36.1492 63.2401C32.2792 63.2401 30.6022 61.6921 29.1402 61.6921C28.7102 61.6921 28.1942 61.8211 27.8072 62.0361L26.6032 62.6811L24.0662 53.5221L25.5712 52.8771C28.1942 58.7681 32.4942 61.2621 35.7622 61.2621C38.5142 61.2621 41.3092 59.8431 41.3092 56.3601C41.3092 48.4481 25.6142 52.9201 25.6142 42.0411C25.6142 37.6981 29.2262 34.0001 34.0852 34.0001C37.4392 34.0001 38.9012 35.4621 40.2772 35.4621C40.8362 35.4621 41.3522 35.2471 41.7392 35.0321L42.9862 34.3441L44.9642 43.0301L43.6312 43.5031C41.5672 38.4721 37.7402 35.9351 34.6442 35.9351Z" fill="black" fill-opacity="0.1"/>
<path d="M75.6442 8.93506C73.1072 8.93506 71.1292 10.5261 71.1292 13.1491C71.1292 20.2011 87.0392 16.6321 87.0392 27.2531C87.0392 32.2411 82.6102 36.2401 77.1492 36.2401C73.2792 36.2401 71.6022 34.6921 70.1402 34.6921C69.7102 34.6921 69.1942 34.8211 68.8072 35.0361L67.6032 35.6811L65.0662 26.5221L66.5712 25.8771C69.1942 31.7681 73.4942 34.2621 76.7622 34.2621C79.5142 34.2621 82.3092 32.8431 82.3092 29.3601C82.3092 21.4481 66.6142 25.9201 66.6142 15.0411C66.6142 10.6981 70.2262 7.00006 75.0852 7.00006C78.4392 7.00006 79.9012 8.46206 81.2772 8.46206C81.8362 8.46206 82.3522 8.24706 82.7392 8.03206L83.9862 7.34406L85.9642 16.0301L84.6312 16.5031C82.5672 11.4721 78.7402 8.93506 75.6442 8.93506Z" fill="black" fill-opacity="0.05"/>
<path d="M90.6442 64.9351C88.1072 64.9351 86.1292 66.5261 86.1292 69.1491C86.1292 76.2011 102.039 72.6321 102.039 83.2531C102.039 88.2411 97.6102 92.2401 92.1492 92.2401C88.2792 92.2401 86.6022 90.6921 85.1402 90.6921C84.7102 90.6921 84.1942 90.8211 83.8072 91.0361L82.6032 91.6811L80.0662 82.5221L81.5712 81.8771C84.1942 87.7681 88.4942 90.2621 91.7622 90.2621C94.5142 90.2621 97.3092 88.8431 97.3092 85.3601C97.3092 77.4481 81.6142 81.9201 81.6142 71.0411C81.6142 66.6981 85.2262 63.0001 90.0852 63.0001C93.4392 63.0001 94.9012 64.4621 96.2772 64.4621C96.8362 64.4621 97.3522 64.2471 97.7392 64.0321L98.9862 63.3441L100.964 72.0301L99.6312 72.5031C97.5672 67.4721 93.7402 64.9351 90.6442 64.9351Z" fill="black" fill-opacity="0.1"/>
<path d="M10.6442 128.935C8.1072 128.935 6.1292 130.526 6.1292 133.149C6.1292 140.201 22.0392 136.632 22.0392 147.253C22.0392 152.241 17.6102 156.24 12.1492 156.24C8.2792 156.24 6.6022 154.692 5.1402 154.692C4.7102 154.692 4.1942 154.821 3.8072 155.036L2.6032 155.681L0.0661992 146.522L1.5712 145.877C4.1942 151.768 8.4942 154.262 11.7622 154.262C14.5142 154.262 17.3092 152.843 17.3092 149.36C17.3092 141.448 1.6142 145.92 1.6142 135.041C1.6142 130.698 5.2262 127 10.0852 127C13.4392 127 14.9012 128.462 16.2772 128.462C16.8362 128.462 17.3522 128.247 17.7392 128.032L18.9862 127.344L20.9642 136.03L19.6312 136.503C17.5672 131.472 13.7402 128.935 10.6442 128.935Z" fill="black" fill-opacity="0.1"/>
<path d="M25.6442 89.9351C23.1072 89.9351 21.1292 91.5261 21.1292 94.1491C21.1292 101.201 37.0392 97.6321 37.0392 108.253C37.0392 113.241 32.6102 117.24 27.1492 117.24C23.2792 117.24 21.6022 115.692 20.1402 115.692C19.7102 115.692 19.1942 115.821 18.8072 116.036L17.6032 116.681L15.0662 107.522L16.5712 106.877C19.1942 112.768 23.4942 115.262 26.7622 115.262C29.5142 115.262 32.3092 113.843 32.3092 110.36C32.3092 102.448 16.6142 106.92 16.6142 96.0411C16.6142 91.6981 20.2262 88.0001 25.0852 88.0001C28.4392 88.0001 29.9012 89.4621 31.2772 89.4621C31.8362 89.4621 32.3522 89.2471 32.7392 89.0321L33.9862 88.3441L35.9642 97.0301L34.6312 97.5031C32.5672 92.4721 28.7402 89.9351 25.6442 89.9351Z" fill="black" fill-opacity="0.05"/>
<path d="M116.644 113.935C114.107 113.935 112.129 115.526 112.129 118.149C112.129 125.201 128.039 121.632 128.039 132.253C128.039 137.241 123.61 141.24 118.149 141.24C114.279 141.24 112.602 139.692 111.14 139.692C110.71 139.692 110.194 139.821 109.807 140.036L108.603 140.681L106.066 131.522L107.571 130.877C110.194 136.768 114.494 139.262 117.762 139.262C120.514 139.262 123.309 137.843 123.309 134.36C123.309 126.448 107.614 130.92 107.614 120.041C107.614 115.698 111.226 112 116.085 112C119.439 112 120.901 113.462 122.277 113.462C122.836 113.462 123.352 113.247 123.739 113.032L124.986 112.344L126.964 121.03L125.631 121.503C123.567 116.472 119.74 113.935 116.644 113.935Z" fill="black" fill-opacity="0.05"/>
<path d="M116.644 28.9351C114.107 28.9351 112.129 30.5261 112.129 33.1491C112.129 40.2011 128.039 36.6321 128.039 47.2531C128.039 52.2411 123.61 56.2401 118.149 56.2401C114.279 56.2401 112.602 54.6921 111.14 54.6921C110.71 54.6921 110.194 54.8211 109.807 55.0361L108.603 55.6811L106.066 46.5221L107.571 45.8771C110.194 51.7681 114.494 54.2621 117.762 54.2621C120.514 54.2621 123.309 52.8431 123.309 49.3601C123.309 41.4481 107.614 45.9201 107.614 35.0411C107.614 30.6981 111.226 27.0001 116.085 27.0001C119.439 27.0001 120.901 28.4621 122.277 28.4621C122.836 28.4621 123.352 28.2471 123.739 28.0321L124.986 27.3441L126.964 36.0301L125.631 36.5031C123.567 31.4721 119.74 28.9351 116.644 28.9351Z" fill="black" fill-opacity="0.1"/>
<path d="M19.6442 1.93506C17.1072 1.93506 15.1292 3.52606 15.1292 6.14906C15.1292 13.2011 31.0392 9.63206 31.0392 20.2531C31.0392 25.2411 26.6102 29.2401 21.1492 29.2401C17.2792 29.2401 15.6022 27.6921 14.1402 27.6921C13.7102 27.6921 13.1942 27.8211 12.8072 28.0361L11.6032 28.6811L9.0662 19.5221L10.5712 18.8771C13.1942 24.7681 17.4942 27.2621 20.7622 27.2621C23.5142 27.2621 26.3092 25.8431 26.3092 22.3601C26.3092 14.4481 10.6142 18.9201 10.6142 8.04106C10.6142 3.69806 14.2262 5.78761e-05 19.0852 5.78761e-05C22.4392 5.78761e-05 23.9012 1.46206 25.2772 1.46206C25.8362 1.46206 26.3522 1.24706 26.7392 1.03206L27.9862 0.344056L29.9642 9.03006L28.6312 9.50306C26.5672 4.47206 22.7402 1.93506 19.6442 1.93506Z" fill="black" fill-opacity="0.05"/>
<path d="M78.6442 128.935C76.1072 128.935 74.1292 130.526 74.1292 133.149C74.1292 140.201 90.0392 136.632 90.0392 147.253C90.0392 152.241 85.6102 156.24 80.1492 156.24C76.2792 156.24 74.6022 154.692 73.1402 154.692C72.7102 154.692 72.1942 154.821 71.8072 155.036L70.6032 155.681L68.0662 146.522L69.5712 145.877C72.1942 151.768 76.4942 154.262 79.7622 154.262C82.5142 154.262 85.3092 152.843 85.3092 149.36C85.3092 141.448 69.6142 145.92 69.6142 135.041C69.6142 130.698 73.2262 127 78.0852 127C81.4392 127 82.9012 128.462 84.2772 128.462C84.8362 128.462 85.3522 128.247 85.7392 128.032L86.9862 127.344L88.9642 136.03L87.6312 136.503C85.5672 131.472 81.7402 128.935 78.6442 128.935Z" fill="black" fill-opacity="0.1"/>
</svg>
